G04 #@! TF.GenerationSoftware,KiCad,Pcbnew,6.0.4-6f826c9f35~116~ubuntu18.04.1*
G04 #@! TF.CreationDate,2022-06-01T20:55:35+10:00*
G04 #@! TF.ProjectId,256KROM,3235364b-524f-44d2-9e6b-696361645f70,rev?*
G04 #@! TF.SameCoordinates,Original*
G04 #@! TF.FileFunction,Legend,Bot*
G04 #@! TF.FilePolarity,Positive*
%FSLAX46Y46*%
G04 Gerber Fmt 4.6, Leading zero omitted, Abs format (unit mm)*
G04 Created by KiCad (PCBNEW 6.0.4-6f826c9f35~116~ubuntu18.04.1) date 2022-06-01 20:55:35*
%MOMM*%
%LPD*%
G01*
G04 APERTURE LIST*
%ADD10R,1.422400X1.422400*%
%ADD11C,1.422400*%
%ADD12R,1.600000X2.400000*%
%ADD13O,1.600000X2.400000*%
%ADD14R,1.700000X1.700000*%
%ADD15O,1.700000X1.700000*%
%ADD16R,1.800000X1.800000*%
%ADD17O,1.800000X1.800000*%
G04 APERTURE END LIST*
%LPC*%
D10*
X111252000Y-108331000D03*
D11*
X113792000Y-110871000D03*
X113792000Y-108331000D03*
X116332000Y-110871000D03*
X116332000Y-108331000D03*
X118872000Y-110871000D03*
X121412000Y-108331000D03*
X118872000Y-108331000D03*
X121412000Y-105791000D03*
X118872000Y-105791000D03*
X121412000Y-103251000D03*
X118872000Y-103251000D03*
X121412000Y-100711000D03*
X118872000Y-100711000D03*
X121412000Y-98171000D03*
X118872000Y-98171000D03*
X121412000Y-95631000D03*
X118872000Y-93091000D03*
X118872000Y-95631000D03*
X116332000Y-93091000D03*
X116332000Y-95631000D03*
X113792000Y-93091000D03*
X113792000Y-95631000D03*
X111252000Y-93091000D03*
X111252000Y-95631000D03*
X108712000Y-93091000D03*
X108712000Y-95631000D03*
X106172000Y-93091000D03*
X103632000Y-95631000D03*
X106172000Y-95631000D03*
X103632000Y-98171000D03*
X106172000Y-98171000D03*
X103632000Y-100711000D03*
X106172000Y-100711000D03*
X103632000Y-103251000D03*
X106172000Y-103251000D03*
X103632000Y-105791000D03*
X106172000Y-105791000D03*
X103632000Y-108331000D03*
X106172000Y-110871000D03*
X106172000Y-108331000D03*
X108712000Y-110871000D03*
X108712000Y-108331000D03*
X111252000Y-110871000D03*
D12*
X149987000Y-122174000D03*
D13*
X147447000Y-122174000D03*
X144907000Y-122174000D03*
X142367000Y-122174000D03*
X139827000Y-122174000D03*
X137287000Y-122174000D03*
X134747000Y-122174000D03*
X132207000Y-122174000D03*
X129667000Y-122174000D03*
X127127000Y-122174000D03*
X124587000Y-122174000D03*
X122047000Y-122174000D03*
X119507000Y-122174000D03*
X116967000Y-122174000D03*
X114427000Y-122174000D03*
X111887000Y-122174000D03*
X109347000Y-122174000D03*
X106807000Y-122174000D03*
X104267000Y-122174000D03*
X101727000Y-122174000D03*
X99187000Y-122174000D03*
X96647000Y-122174000D03*
X94107000Y-122174000D03*
X91567000Y-122174000D03*
X89027000Y-122174000D03*
X86487000Y-122174000D03*
X83947000Y-122174000D03*
X81407000Y-122174000D03*
X78867000Y-122174000D03*
X76327000Y-122174000D03*
X73787000Y-122174000D03*
X71247000Y-122174000D03*
X71247000Y-145034000D03*
X73787000Y-145034000D03*
X76327000Y-145034000D03*
X78867000Y-145034000D03*
X81407000Y-145034000D03*
X83947000Y-145034000D03*
X86487000Y-145034000D03*
X89027000Y-145034000D03*
X91567000Y-145034000D03*
X94107000Y-145034000D03*
X96647000Y-145034000D03*
X99187000Y-145034000D03*
X101727000Y-145034000D03*
X104267000Y-145034000D03*
X106807000Y-145034000D03*
X109347000Y-145034000D03*
X111887000Y-145034000D03*
X114427000Y-145034000D03*
X116967000Y-145034000D03*
X119507000Y-145034000D03*
X122047000Y-145034000D03*
X124587000Y-145034000D03*
X127127000Y-145034000D03*
X129667000Y-145034000D03*
X132207000Y-145034000D03*
X134747000Y-145034000D03*
X137287000Y-145034000D03*
X139827000Y-145034000D03*
X142367000Y-145034000D03*
X144907000Y-145034000D03*
X147447000Y-145034000D03*
X149987000Y-145034000D03*
D12*
X149987000Y-118745000D03*
D13*
X147447000Y-118745000D03*
X144907000Y-118745000D03*
X142367000Y-118745000D03*
X139827000Y-118745000D03*
X137287000Y-118745000D03*
X134747000Y-118745000D03*
X132207000Y-118745000D03*
X129667000Y-118745000D03*
X127127000Y-118745000D03*
X124587000Y-118745000D03*
X122047000Y-118745000D03*
X119507000Y-118745000D03*
X116967000Y-118745000D03*
X114427000Y-118745000D03*
X111887000Y-118745000D03*
X109347000Y-118745000D03*
X106807000Y-118745000D03*
X104267000Y-118745000D03*
X101727000Y-118745000D03*
X99187000Y-118745000D03*
X96647000Y-118745000D03*
X94107000Y-118745000D03*
X91567000Y-118745000D03*
X89027000Y-118745000D03*
X86487000Y-118745000D03*
X83947000Y-118745000D03*
X81407000Y-118745000D03*
X78867000Y-118745000D03*
X76327000Y-118745000D03*
X73787000Y-118745000D03*
X71247000Y-118745000D03*
X71247000Y-141605000D03*
X73787000Y-141605000D03*
X76327000Y-141605000D03*
X78867000Y-141605000D03*
X81407000Y-141605000D03*
X83947000Y-141605000D03*
X86487000Y-141605000D03*
X89027000Y-141605000D03*
X91567000Y-141605000D03*
X94107000Y-141605000D03*
X96647000Y-141605000D03*
X99187000Y-141605000D03*
X101727000Y-141605000D03*
X104267000Y-141605000D03*
X106807000Y-141605000D03*
X109347000Y-141605000D03*
X111887000Y-141605000D03*
X114427000Y-141605000D03*
X116967000Y-141605000D03*
X119507000Y-141605000D03*
X122047000Y-141605000D03*
X124587000Y-141605000D03*
X127127000Y-141605000D03*
X129667000Y-141605000D03*
X132207000Y-141605000D03*
X134747000Y-141605000D03*
X137287000Y-141605000D03*
X139827000Y-141605000D03*
X142367000Y-141605000D03*
X144907000Y-141605000D03*
X147447000Y-141605000D03*
X149987000Y-141605000D03*
D14*
X89408000Y-112649000D03*
X129159000Y-94996000D03*
D15*
X131699000Y-94996000D03*
X129159000Y-97536000D03*
X131699000Y-97536000D03*
D16*
X127254000Y-136652000D03*
D17*
X127254000Y-129032000D03*
M02*
