M48
; DRILL file {KiCad 6.0.4-6f826c9f35~116~ubuntu18.04.1} date Wed 01 Jun 2022 20:56:26 AEST
; FORMAT={-:-/ absolute / metric / decimal}
; #@! TF.CreationDate,2022-06-01T20:56:26+10:00
; #@! TF.GenerationSoftware,Kicad,Pcbnew,6.0.4-6f826c9f35~116~ubuntu18.04.1
; #@! TF.FileFunction,Plated,1,2,PTH
FMAT,2
METRIC
; #@! TA.AperFunction,Plated,PTH,ViaDrill
T1C0.400
; #@! TA.AperFunction,Plated,PTH,ComponentDrill
T2C0.800
; #@! TA.AperFunction,Plated,PTH,ComponentDrill
T3C0.900
; #@! TA.AperFunction,Plated,PTH,ComponentDrill
T4C1.000
%
G90
G05
T1
X100.838Y-147.32
X107.696Y-133.096
X112.268Y-138.684
X112.522Y-124.424
X112.776Y-136.906
X113.03Y-134.62
X114.042Y-147.283
X116.459Y-132.08
X118.872Y-126.746
X124.46Y-101.727
X125.603Y-100.711
T2
X71.247Y-118.745
X71.247Y-122.174
X71.247Y-141.605
X71.247Y-145.034
X73.787Y-118.745
X73.787Y-122.174
X73.787Y-141.605
X73.787Y-145.034
X76.327Y-118.745
X76.327Y-122.174
X76.327Y-141.605
X76.327Y-145.034
X78.867Y-118.745
X78.867Y-122.174
X78.867Y-141.605
X78.867Y-145.034
X81.407Y-118.745
X81.407Y-122.174
X81.407Y-141.605
X81.407Y-145.034
X83.947Y-118.745
X83.947Y-122.174
X83.947Y-141.605
X83.947Y-145.034
X86.487Y-118.745
X86.487Y-122.174
X86.487Y-141.605
X86.487Y-145.034
X89.027Y-118.745
X89.027Y-122.174
X89.027Y-141.605
X89.027Y-145.034
X91.567Y-118.745
X91.567Y-122.174
X91.567Y-141.605
X91.567Y-145.034
X94.107Y-118.745
X94.107Y-122.174
X94.107Y-141.605
X94.107Y-145.034
X96.647Y-118.745
X96.647Y-122.174
X96.647Y-141.605
X96.647Y-145.034
X99.187Y-118.745
X99.187Y-122.174
X99.187Y-141.605
X99.187Y-145.034
X101.727Y-118.745
X101.727Y-122.174
X101.727Y-141.605
X101.727Y-145.034
X103.632Y-95.631
X103.632Y-98.171
X103.632Y-100.711
X103.632Y-103.251
X103.632Y-105.791
X103.632Y-108.331
X104.267Y-118.745
X104.267Y-122.174
X104.267Y-141.605
X104.267Y-145.034
X106.172Y-93.091
X106.172Y-95.631
X106.172Y-98.171
X106.172Y-100.711
X106.172Y-103.251
X106.172Y-105.791
X106.172Y-108.331
X106.172Y-110.871
X106.807Y-118.745
X106.807Y-122.174
X106.807Y-141.605
X106.807Y-145.034
X108.712Y-93.091
X108.712Y-95.631
X108.712Y-108.331
X108.712Y-110.871
X109.347Y-118.745
X109.347Y-122.174
X109.347Y-141.605
X109.347Y-145.034
X111.252Y-93.091
X111.252Y-95.631
X111.252Y-108.331
X111.252Y-110.871
X111.887Y-118.745
X111.887Y-122.174
X111.887Y-141.605
X111.887Y-145.034
X113.792Y-93.091
X113.792Y-95.631
X113.792Y-108.331
X113.792Y-110.871
X114.427Y-118.745
X114.427Y-122.174
X114.427Y-141.605
X114.427Y-145.034
X116.332Y-93.091
X116.332Y-95.631
X116.332Y-108.331
X116.332Y-110.871
X116.967Y-118.745
X116.967Y-122.174
X116.967Y-141.605
X116.967Y-145.034
X118.872Y-93.091
X118.872Y-95.631
X118.872Y-98.171
X118.872Y-100.711
X118.872Y-103.251
X118.872Y-105.791
X118.872Y-108.331
X118.872Y-110.871
X119.507Y-118.745
X119.507Y-122.174
X119.507Y-141.605
X119.507Y-145.034
X121.412Y-95.631
X121.412Y-98.171
X121.412Y-100.711
X121.412Y-103.251
X121.412Y-105.791
X121.412Y-108.331
X122.047Y-118.745
X122.047Y-122.174
X122.047Y-141.605
X122.047Y-145.034
X124.587Y-118.745
X124.587Y-122.174
X124.587Y-141.605
X124.587Y-145.034
X127.127Y-118.745
X127.127Y-122.174
X127.127Y-141.605
X127.127Y-145.034
X129.667Y-118.745
X129.667Y-122.174
X129.667Y-141.605
X129.667Y-145.034
X132.207Y-118.745
X132.207Y-122.174
X132.207Y-141.605
X132.207Y-145.034
X134.747Y-118.745
X134.747Y-122.174
X134.747Y-141.605
X134.747Y-145.034
X137.287Y-118.745
X137.287Y-122.174
X137.287Y-141.605
X137.287Y-145.034
X139.827Y-118.745
X139.827Y-122.174
X139.827Y-141.605
X139.827Y-145.034
X142.367Y-118.745
X142.367Y-122.174
X142.367Y-141.605
X142.367Y-145.034
X144.907Y-118.745
X144.907Y-122.174
X144.907Y-141.605
X144.907Y-145.034
X147.447Y-118.745
X147.447Y-122.174
X147.447Y-141.605
X147.447Y-145.034
X149.987Y-118.745
X149.987Y-122.174
X149.987Y-141.605
X149.987Y-145.034
T3
X127.254Y-129.032
X127.254Y-136.652
T4
X89.408Y-112.649
X129.159Y-94.996
X129.159Y-97.536
X131.699Y-94.996
X131.699Y-97.536
T0
M30
