G04 #@! TF.GenerationSoftware,KiCad,Pcbnew,6.0.4-6f826c9f35~116~ubuntu18.04.1*
G04 #@! TF.CreationDate,2022-06-01T20:55:35+10:00*
G04 #@! TF.ProjectId,256KROM,3235364b-524f-44d2-9e6b-696361645f70,rev?*
G04 #@! TF.SameCoordinates,Original*
G04 #@! TF.FileFunction,Copper,L1,Top*
G04 #@! TF.FilePolarity,Positive*
%FSLAX46Y46*%
G04 Gerber Fmt 4.6, Leading zero omitted, Abs format (unit mm)*
G04 Created by KiCad (PCBNEW 6.0.4-6f826c9f35~116~ubuntu18.04.1) date 2022-06-01 20:55:35*
%MOMM*%
%LPD*%
G01*
G04 APERTURE LIST*
G04 Aperture macros list*
%AMRoundRect*
0 Rectangle with rounded corners*
0 $1 Rounding radius*
0 $2 $3 $4 $5 $6 $7 $8 $9 X,Y pos of 4 corners*
0 Add a 4 corners polygon primitive as box body*
4,1,4,$2,$3,$4,$5,$6,$7,$8,$9,$2,$3,0*
0 Add four circle primitives for the rounded corners*
1,1,$1+$1,$2,$3*
1,1,$1+$1,$4,$5*
1,1,$1+$1,$6,$7*
1,1,$1+$1,$8,$9*
0 Add four rect primitives between the rounded corners*
20,1,$1+$1,$2,$3,$4,$5,0*
20,1,$1+$1,$4,$5,$6,$7,0*
20,1,$1+$1,$6,$7,$8,$9,0*
20,1,$1+$1,$8,$9,$2,$3,0*%
G04 Aperture macros list end*
G04 #@! TA.AperFunction,ComponentPad*
%ADD10R,1.422400X1.422400*%
G04 #@! TD*
G04 #@! TA.AperFunction,ComponentPad*
%ADD11C,1.422400*%
G04 #@! TD*
G04 #@! TA.AperFunction,ComponentPad*
%ADD12R,1.600000X2.400000*%
G04 #@! TD*
G04 #@! TA.AperFunction,ComponentPad*
%ADD13O,1.600000X2.400000*%
G04 #@! TD*
G04 #@! TA.AperFunction,SMDPad,CuDef*
%ADD14RoundRect,0.150000X-0.825000X-0.150000X0.825000X-0.150000X0.825000X0.150000X-0.825000X0.150000X0*%
G04 #@! TD*
G04 #@! TA.AperFunction,SMDPad,CuDef*
%ADD15RoundRect,0.150000X0.825000X0.150000X-0.825000X0.150000X-0.825000X-0.150000X0.825000X-0.150000X0*%
G04 #@! TD*
G04 #@! TA.AperFunction,SMDPad,CuDef*
%ADD16RoundRect,0.225000X-0.250000X0.225000X-0.250000X-0.225000X0.250000X-0.225000X0.250000X0.225000X0*%
G04 #@! TD*
G04 #@! TA.AperFunction,SMDPad,CuDef*
%ADD17RoundRect,0.225000X0.250000X-0.225000X0.250000X0.225000X-0.250000X0.225000X-0.250000X-0.225000X0*%
G04 #@! TD*
G04 #@! TA.AperFunction,SMDPad,CuDef*
%ADD18RoundRect,0.225000X0.225000X0.250000X-0.225000X0.250000X-0.225000X-0.250000X0.225000X-0.250000X0*%
G04 #@! TD*
G04 #@! TA.AperFunction,ComponentPad*
%ADD19R,1.700000X1.700000*%
G04 #@! TD*
G04 #@! TA.AperFunction,ComponentPad*
%ADD20O,1.700000X1.700000*%
G04 #@! TD*
G04 #@! TA.AperFunction,ComponentPad*
%ADD21R,1.800000X1.800000*%
G04 #@! TD*
G04 #@! TA.AperFunction,ComponentPad*
%ADD22O,1.800000X1.800000*%
G04 #@! TD*
G04 #@! TA.AperFunction,ViaPad*
%ADD23C,0.800000*%
G04 #@! TD*
G04 #@! TA.AperFunction,Conductor*
%ADD24C,0.250000*%
G04 #@! TD*
G04 APERTURE END LIST*
D10*
X111252000Y-108331000D03*
D11*
X113792000Y-110871000D03*
X113792000Y-108331000D03*
X116332000Y-110871000D03*
X116332000Y-108331000D03*
X118872000Y-110871000D03*
X121412000Y-108331000D03*
X118872000Y-108331000D03*
X121412000Y-105791000D03*
X118872000Y-105791000D03*
X121412000Y-103251000D03*
X118872000Y-103251000D03*
X121412000Y-100711000D03*
X118872000Y-100711000D03*
X121412000Y-98171000D03*
X118872000Y-98171000D03*
X121412000Y-95631000D03*
X118872000Y-93091000D03*
X118872000Y-95631000D03*
X116332000Y-93091000D03*
X116332000Y-95631000D03*
X113792000Y-93091000D03*
X113792000Y-95631000D03*
X111252000Y-93091000D03*
X111252000Y-95631000D03*
X108712000Y-93091000D03*
X108712000Y-95631000D03*
X106172000Y-93091000D03*
X103632000Y-95631000D03*
X106172000Y-95631000D03*
X103632000Y-98171000D03*
X106172000Y-98171000D03*
X103632000Y-100711000D03*
X106172000Y-100711000D03*
X103632000Y-103251000D03*
X106172000Y-103251000D03*
X103632000Y-105791000D03*
X106172000Y-105791000D03*
X103632000Y-108331000D03*
X106172000Y-110871000D03*
X106172000Y-108331000D03*
X108712000Y-110871000D03*
X108712000Y-108331000D03*
X111252000Y-110871000D03*
D12*
X149987000Y-122174000D03*
D13*
X147447000Y-122174000D03*
X144907000Y-122174000D03*
X142367000Y-122174000D03*
X139827000Y-122174000D03*
X137287000Y-122174000D03*
X134747000Y-122174000D03*
X132207000Y-122174000D03*
X129667000Y-122174000D03*
X127127000Y-122174000D03*
X124587000Y-122174000D03*
X122047000Y-122174000D03*
X119507000Y-122174000D03*
X116967000Y-122174000D03*
X114427000Y-122174000D03*
X111887000Y-122174000D03*
X109347000Y-122174000D03*
X106807000Y-122174000D03*
X104267000Y-122174000D03*
X101727000Y-122174000D03*
X99187000Y-122174000D03*
X96647000Y-122174000D03*
X94107000Y-122174000D03*
X91567000Y-122174000D03*
X89027000Y-122174000D03*
X86487000Y-122174000D03*
X83947000Y-122174000D03*
X81407000Y-122174000D03*
X78867000Y-122174000D03*
X76327000Y-122174000D03*
X73787000Y-122174000D03*
X71247000Y-122174000D03*
X71247000Y-145034000D03*
X73787000Y-145034000D03*
X76327000Y-145034000D03*
X78867000Y-145034000D03*
X81407000Y-145034000D03*
X83947000Y-145034000D03*
X86487000Y-145034000D03*
X89027000Y-145034000D03*
X91567000Y-145034000D03*
X94107000Y-145034000D03*
X96647000Y-145034000D03*
X99187000Y-145034000D03*
X101727000Y-145034000D03*
X104267000Y-145034000D03*
X106807000Y-145034000D03*
X109347000Y-145034000D03*
X111887000Y-145034000D03*
X114427000Y-145034000D03*
X116967000Y-145034000D03*
X119507000Y-145034000D03*
X122047000Y-145034000D03*
X124587000Y-145034000D03*
X127127000Y-145034000D03*
X129667000Y-145034000D03*
X132207000Y-145034000D03*
X134747000Y-145034000D03*
X137287000Y-145034000D03*
X139827000Y-145034000D03*
X142367000Y-145034000D03*
X144907000Y-145034000D03*
X147447000Y-145034000D03*
X149987000Y-145034000D03*
D12*
X149987000Y-118745000D03*
D13*
X147447000Y-118745000D03*
X144907000Y-118745000D03*
X142367000Y-118745000D03*
X139827000Y-118745000D03*
X137287000Y-118745000D03*
X134747000Y-118745000D03*
X132207000Y-118745000D03*
X129667000Y-118745000D03*
X127127000Y-118745000D03*
X124587000Y-118745000D03*
X122047000Y-118745000D03*
X119507000Y-118745000D03*
X116967000Y-118745000D03*
X114427000Y-118745000D03*
X111887000Y-118745000D03*
X109347000Y-118745000D03*
X106807000Y-118745000D03*
X104267000Y-118745000D03*
X101727000Y-118745000D03*
X99187000Y-118745000D03*
X96647000Y-118745000D03*
X94107000Y-118745000D03*
X91567000Y-118745000D03*
X89027000Y-118745000D03*
X86487000Y-118745000D03*
X83947000Y-118745000D03*
X81407000Y-118745000D03*
X78867000Y-118745000D03*
X76327000Y-118745000D03*
X73787000Y-118745000D03*
X71247000Y-118745000D03*
X71247000Y-141605000D03*
X73787000Y-141605000D03*
X76327000Y-141605000D03*
X78867000Y-141605000D03*
X81407000Y-141605000D03*
X83947000Y-141605000D03*
X86487000Y-141605000D03*
X89027000Y-141605000D03*
X91567000Y-141605000D03*
X94107000Y-141605000D03*
X96647000Y-141605000D03*
X99187000Y-141605000D03*
X101727000Y-141605000D03*
X104267000Y-141605000D03*
X106807000Y-141605000D03*
X109347000Y-141605000D03*
X111887000Y-141605000D03*
X114427000Y-141605000D03*
X116967000Y-141605000D03*
X119507000Y-141605000D03*
X122047000Y-141605000D03*
X124587000Y-141605000D03*
X127127000Y-141605000D03*
X129667000Y-141605000D03*
X132207000Y-141605000D03*
X134747000Y-141605000D03*
X137287000Y-141605000D03*
X139827000Y-141605000D03*
X142367000Y-141605000D03*
X144907000Y-141605000D03*
X147447000Y-141605000D03*
X149987000Y-141605000D03*
D14*
X114684000Y-128270000D03*
X114684000Y-129540000D03*
X114684000Y-130810000D03*
X114684000Y-132080000D03*
X114684000Y-133350000D03*
X114684000Y-134620000D03*
X114684000Y-135890000D03*
X114684000Y-137160000D03*
X119634000Y-137160000D03*
X119634000Y-135890000D03*
X119634000Y-134620000D03*
X119634000Y-133350000D03*
X119634000Y-132080000D03*
X119634000Y-130810000D03*
X119634000Y-129540000D03*
X119634000Y-128270000D03*
D15*
X105853000Y-136144000D03*
X105853000Y-134874000D03*
X105853000Y-133604000D03*
X105853000Y-132334000D03*
X105853000Y-131064000D03*
X105853000Y-129794000D03*
X105853000Y-128524000D03*
X100903000Y-128524000D03*
X100903000Y-129794000D03*
X100903000Y-131064000D03*
X100903000Y-132334000D03*
X100903000Y-133604000D03*
X100903000Y-134874000D03*
X100903000Y-136144000D03*
D16*
X121920000Y-128625000D03*
X121920000Y-130175000D03*
D17*
X98552000Y-136170000D03*
X98552000Y-134620000D03*
D18*
X113551000Y-116078000D03*
X112001000Y-116078000D03*
D19*
X89408000Y-112649000D03*
X129159000Y-94996000D03*
D20*
X131699000Y-94996000D03*
X129159000Y-97536000D03*
X131699000Y-97536000D03*
D21*
X127254000Y-136652000D03*
D22*
X127254000Y-129032000D03*
D23*
X112776000Y-136906000D03*
X125603000Y-100711000D03*
X124460000Y-101727000D03*
X112268000Y-138684000D03*
X113030000Y-134620000D03*
X114041696Y-147283020D03*
X118872000Y-126746000D03*
X116459000Y-132080000D03*
X100838000Y-147320000D03*
X107696000Y-133096000D03*
X112522000Y-124423510D03*
D24*
X94107000Y-145034000D02*
X94107000Y-141605000D01*
X89027000Y-145034000D02*
X89027000Y-141605000D01*
X83947000Y-145034000D02*
X83947000Y-141605000D01*
X78867000Y-145034000D02*
X78867000Y-141605000D01*
X96647000Y-145034000D02*
X96647000Y-141605000D01*
X91567000Y-145034000D02*
X91567000Y-141605000D01*
X86487000Y-145034000D02*
X86487000Y-141605000D01*
X114684000Y-137160000D02*
X113030000Y-137160000D01*
X103378000Y-131064000D02*
X105853000Y-131064000D01*
X113030000Y-137160000D02*
X112776000Y-136906000D01*
X122047000Y-141523000D02*
X122047000Y-141605000D01*
X106807000Y-127254000D02*
X105156000Y-127254000D01*
X100903000Y-131064000D02*
X103378000Y-131064000D01*
X107152520Y-130337480D02*
X106426000Y-131064000D01*
X118872000Y-103251000D02*
X119908201Y-102214799D01*
X113792000Y-108331000D02*
X118872000Y-103251000D01*
X103378000Y-129032000D02*
X103378000Y-131064000D01*
X99568000Y-131064000D02*
X98552000Y-132080000D01*
X121909377Y-102214799D02*
X123413176Y-100711000D01*
X105853000Y-132334000D02*
X104648000Y-132334000D01*
X103378000Y-131064000D02*
X102108000Y-129794000D01*
X111887000Y-118745000D02*
X111887000Y-116967000D01*
X119908201Y-102214799D02*
X121909377Y-102214799D01*
X106680000Y-128524000D02*
X107152520Y-128996520D01*
X111887000Y-122174000D02*
X106807000Y-127254000D01*
X104648000Y-132334000D02*
X103378000Y-131064000D01*
X106426000Y-131064000D02*
X105853000Y-131064000D01*
X107152520Y-128996520D02*
X107152520Y-130337480D01*
X121920000Y-141478000D02*
X122047000Y-141605000D01*
X112001000Y-116853000D02*
X112001000Y-116078000D01*
X105156000Y-127254000D02*
X103378000Y-129032000D01*
X111887000Y-116967000D02*
X112001000Y-116853000D01*
X100903000Y-131064000D02*
X99568000Y-131064000D01*
X121920000Y-130175000D02*
X121920000Y-141478000D01*
X123413176Y-100711000D02*
X125603000Y-100711000D01*
X105853000Y-128524000D02*
X106680000Y-128524000D01*
X98552000Y-132080000D02*
X98552000Y-134620000D01*
X102108000Y-129794000D02*
X100903000Y-129794000D01*
X81407000Y-145034000D02*
X81407000Y-141605000D01*
X76327000Y-145034000D02*
X76327000Y-141605000D01*
X71247000Y-145034000D02*
X71247000Y-141605000D01*
X109748201Y-94127201D02*
X108712000Y-93091000D01*
X73787000Y-122174000D02*
X73787000Y-118745000D01*
X90317201Y-102214799D02*
X106913799Y-102214799D01*
X109748201Y-99380397D02*
X109748201Y-94127201D01*
X106913799Y-102214799D02*
X109748201Y-99380397D01*
X73787000Y-118745000D02*
X90317201Y-102214799D01*
X112288201Y-101208377D02*
X112288201Y-94127201D01*
X106201779Y-107294799D02*
X112288201Y-101208377D01*
X112288201Y-94127201D02*
X111252000Y-93091000D01*
X90317201Y-107294799D02*
X106201779Y-107294799D01*
X78867000Y-122174000D02*
X78867000Y-118745000D01*
X78867000Y-118745000D02*
X90317201Y-107294799D01*
X118374623Y-96667201D02*
X117368201Y-95660779D01*
X117368201Y-95660779D02*
X117368201Y-94127201D01*
X117368201Y-94127201D02*
X116332000Y-93091000D01*
X142367000Y-122174000D02*
X142367000Y-118745000D01*
X142367000Y-115314589D02*
X123719612Y-96667201D01*
X142367000Y-118745000D02*
X142367000Y-115314589D01*
X123719612Y-96667201D02*
X118374623Y-96667201D01*
X122193000Y-93091000D02*
X118872000Y-93091000D01*
X147447000Y-122174000D02*
X147447000Y-118745000D01*
X147447000Y-118345000D02*
X122193000Y-93091000D01*
X147447000Y-118745000D02*
X147447000Y-118345000D01*
X73787000Y-145034000D02*
X73787000Y-141605000D01*
X71247000Y-122174000D02*
X71247000Y-118745000D01*
X71247000Y-118745000D02*
X90317201Y-99674799D01*
X90317201Y-99674799D02*
X107040799Y-99674799D01*
X108712000Y-98003598D02*
X108712000Y-95631000D01*
X107040799Y-99674799D02*
X108712000Y-98003598D01*
X76327000Y-117295000D02*
X89101000Y-104521000D01*
X89101000Y-104521000D02*
X106435578Y-104521000D01*
X76327000Y-118745000D02*
X76327000Y-117295000D01*
X76327000Y-122174000D02*
X76327000Y-118745000D01*
X106435578Y-104521000D02*
X111252000Y-99704578D01*
X111252000Y-99704578D02*
X111252000Y-95631000D01*
X139827000Y-113411000D02*
X125623201Y-99207201D01*
X139827000Y-122174000D02*
X139827000Y-118745000D01*
X125623201Y-99207201D02*
X118374623Y-99207201D01*
X118374623Y-99207201D02*
X116332000Y-97164578D01*
X116332000Y-97164578D02*
X116332000Y-95631000D01*
X139827000Y-118745000D02*
X139827000Y-113411000D01*
X119908201Y-94594799D02*
X118872000Y-95631000D01*
X122920032Y-94594799D02*
X119908201Y-94594799D01*
X144907000Y-116581767D02*
X122920032Y-94594799D01*
X144907000Y-122174000D02*
X144907000Y-118745000D01*
X144907000Y-118745000D02*
X144907000Y-116581767D01*
X123319822Y-95631000D02*
X121412000Y-95631000D01*
X149987000Y-118745000D02*
X149987000Y-121625004D01*
X143781990Y-123039994D02*
X143781990Y-116093168D01*
X147912994Y-123699010D02*
X144441006Y-123699010D01*
X149987000Y-122174000D02*
X149987000Y-118745000D01*
X143781990Y-116093168D02*
X123319822Y-95631000D01*
X149987000Y-121625004D02*
X147912994Y-123699010D01*
X144441006Y-123699010D02*
X143781990Y-123039994D01*
X147447000Y-141605000D02*
X147447000Y-145034000D01*
X142367000Y-145034000D02*
X142367000Y-141605000D01*
X137287000Y-145034000D02*
X137287000Y-141605000D01*
X132207000Y-145034000D02*
X132207000Y-141605000D01*
X149987000Y-141605000D02*
X149987000Y-145034000D01*
X144907000Y-145034000D02*
X144907000Y-141605000D01*
X139827000Y-145034000D02*
X139827000Y-141605000D01*
X134747000Y-145034000D02*
X134747000Y-141605000D01*
X108077000Y-111506000D02*
X108712000Y-110871000D01*
X101219000Y-141605000D02*
X96774000Y-137160000D01*
X101409859Y-124460000D02*
X106807000Y-124460000D01*
X101727000Y-141605000D02*
X101219000Y-141605000D01*
X108077000Y-123190000D02*
X108077000Y-111506000D01*
X101727000Y-145034000D02*
X101727000Y-141605000D01*
X106807000Y-124460000D02*
X108077000Y-123190000D01*
X96774000Y-137160000D02*
X96774000Y-129095859D01*
X96774000Y-129095859D02*
X101409859Y-124460000D01*
X104510520Y-134249480D02*
X102616000Y-136144000D01*
X117094000Y-126745996D02*
X116967000Y-126618996D01*
X121386000Y-128625000D02*
X121031000Y-128270000D01*
X111887000Y-145034000D02*
X111887000Y-141605000D01*
X118618004Y-128270000D02*
X119634000Y-128270000D01*
X121920000Y-128625000D02*
X121386000Y-128625000D01*
X107950000Y-137668000D02*
X100050000Y-137668000D01*
X100050000Y-137668000D02*
X98552000Y-136170000D01*
X114300000Y-116078000D02*
X116967000Y-118745000D01*
X98552000Y-136170000D02*
X100877000Y-136170000D01*
X113284000Y-128532614D02*
X107567134Y-134249480D01*
X113792000Y-110871000D02*
X115295799Y-109367201D01*
X113284000Y-127762000D02*
X113284000Y-128532614D01*
X116967000Y-118745000D02*
X116967000Y-122174000D01*
X113792000Y-115837000D02*
X113551000Y-116078000D01*
X102616000Y-136144000D02*
X100903000Y-136144000D01*
X116967000Y-126618996D02*
X116967000Y-122174000D01*
X111887000Y-141605000D02*
X107950000Y-137668000D01*
X100877000Y-136170000D02*
X100903000Y-136144000D01*
X117094000Y-126745996D02*
X118618004Y-128270000D01*
X111252000Y-110871000D02*
X113792000Y-110871000D01*
X115295799Y-107833623D02*
X118798922Y-104330500D01*
X114300004Y-126745996D02*
X113284000Y-127762000D01*
X121856500Y-104330500D02*
X124460000Y-101727000D01*
X121031000Y-128270000D02*
X119634000Y-128270000D01*
X117094000Y-126745996D02*
X114300004Y-126745996D01*
X107567134Y-134249480D02*
X104510520Y-134249480D01*
X118798922Y-104330500D02*
X121856500Y-104330500D01*
X113551000Y-116078000D02*
X114300000Y-116078000D01*
X113792000Y-110871000D02*
X113792000Y-115837000D01*
X115295799Y-109367201D02*
X115295799Y-107833623D01*
X129667000Y-145034000D02*
X129667000Y-141605000D01*
X124587000Y-145034000D02*
X124587000Y-141605000D01*
X96266000Y-128778000D02*
X96266000Y-138684000D01*
X96266000Y-138684000D02*
X99187000Y-141605000D01*
X101298990Y-123745010D02*
X96266000Y-128778000D01*
X105681990Y-117584010D02*
X105681990Y-123745010D01*
X105681990Y-123745010D02*
X101298990Y-123745010D01*
X107442000Y-109601000D02*
X107442000Y-115824000D01*
X99187000Y-145034000D02*
X99187000Y-141605000D01*
X107442000Y-115824000D02*
X105681990Y-117584010D01*
X106172000Y-108331000D02*
X107442000Y-109601000D01*
X104267000Y-145034000D02*
X104267000Y-141605000D01*
X127127000Y-145034000D02*
X127127000Y-141605000D01*
X89408000Y-112649000D02*
X92542004Y-112649000D01*
X92542004Y-112649000D02*
X95377000Y-115483996D01*
X96181006Y-146559010D02*
X112352994Y-146559010D01*
X95377000Y-115483996D02*
X95377000Y-145755004D01*
X113012010Y-145899994D02*
X113012010Y-140739006D01*
X113012010Y-140739006D02*
X108417004Y-136144000D01*
X112352994Y-146559010D02*
X113012010Y-145899994D01*
X95377000Y-145755004D02*
X96181006Y-146559010D01*
X108417004Y-136144000D02*
X105853000Y-136144000D01*
X81407000Y-122174000D02*
X81407000Y-118745000D01*
X83947000Y-122174000D02*
X83947000Y-118745000D01*
X86487000Y-122174000D02*
X86487000Y-118745000D01*
X89027000Y-122174000D02*
X89027000Y-118745000D01*
X91567000Y-122174000D02*
X91567000Y-118745000D01*
X94107000Y-122174000D02*
X94107000Y-118745000D01*
X96647000Y-122174000D02*
X96647000Y-118745000D01*
X99187000Y-122174000D02*
X99187000Y-118745000D01*
X119507000Y-141605000D02*
X118248022Y-140346022D01*
X118248022Y-130859022D02*
X115659000Y-128270000D01*
X115659000Y-128270000D02*
X114684000Y-128270000D01*
X119507000Y-145034000D02*
X119507000Y-141605000D01*
X118248022Y-140346022D02*
X118248022Y-130859022D01*
X101727000Y-122174000D02*
X101727000Y-118745000D01*
X117798011Y-137217989D02*
X117798011Y-131512600D01*
X116967000Y-138049000D02*
X117798011Y-137217989D01*
X115825411Y-129540000D02*
X114684000Y-129540000D01*
X116967000Y-145034000D02*
X116967000Y-141605000D01*
X116967000Y-141605000D02*
X116967000Y-138049000D01*
X117798011Y-131512600D02*
X115825411Y-129540000D01*
X104267000Y-122174000D02*
X104267000Y-118745000D01*
X114427000Y-145034000D02*
X114427000Y-141605000D01*
X114427000Y-139827000D02*
X117348000Y-136906000D01*
X117348000Y-136906000D02*
X117348000Y-131699000D01*
X114427000Y-141605000D02*
X114427000Y-139827000D01*
X117348000Y-131699000D02*
X116459000Y-130810000D01*
X116459000Y-130810000D02*
X114684000Y-130810000D01*
X106807000Y-122174000D02*
X106807000Y-118745000D01*
X109347000Y-122174000D02*
X109347000Y-118745000D01*
X115984010Y-133675010D02*
X115659000Y-133350000D01*
X115984010Y-137506758D02*
X115984010Y-133675010D01*
X115659000Y-133350000D02*
X114684000Y-133350000D01*
X113166990Y-137785010D02*
X115705758Y-137785010D01*
X115705758Y-137785010D02*
X115984010Y-137506758D01*
X112268000Y-138684000D02*
X113166990Y-137785010D01*
X109347000Y-145034000D02*
X109347000Y-141605000D01*
X106807000Y-145034000D02*
X106807000Y-141605000D01*
X114427000Y-122174000D02*
X114427000Y-118745000D01*
X119507000Y-122174000D02*
X119507000Y-118745000D01*
X122047000Y-122174000D02*
X122047000Y-118745000D01*
X124587000Y-122174000D02*
X124587000Y-118745000D01*
X127127000Y-122174000D02*
X127127000Y-118745000D01*
X127127000Y-122174000D02*
X127127000Y-119293996D01*
X127127000Y-128905000D02*
X127127000Y-122174000D01*
X127254000Y-129032000D02*
X127127000Y-128905000D01*
X124546004Y-147066000D02*
X125712010Y-145899994D01*
X113030000Y-134620000D02*
X114684000Y-134620000D01*
X114041696Y-147283020D02*
X114258716Y-147066000D01*
X129667000Y-123571000D02*
X129667000Y-122174000D01*
X126371026Y-140079990D02*
X132076422Y-140079990D01*
X114258716Y-147066000D02*
X124546004Y-147066000D01*
X136652000Y-135504412D02*
X136652000Y-130556000D01*
X136652000Y-130556000D02*
X129667000Y-123571000D01*
X132076422Y-140079990D02*
X136652000Y-135504412D01*
X125712010Y-145899994D02*
X125712010Y-140739006D01*
X129667000Y-122174000D02*
X129667000Y-118745000D01*
X125712010Y-140739006D02*
X126371026Y-140079990D01*
X132207000Y-122174000D02*
X132207000Y-118745000D01*
X134747000Y-122174000D02*
X134747000Y-118745000D01*
X135761990Y-117219990D02*
X137287000Y-118745000D01*
X126661006Y-117219990D02*
X135761990Y-117219990D01*
X123676243Y-125365741D02*
X125857000Y-123184984D01*
X137287000Y-122174000D02*
X137287000Y-118745000D01*
X114684000Y-132080000D02*
X116459000Y-132080000D01*
X125857000Y-118023996D02*
X126661006Y-117219990D01*
X118872000Y-126746000D02*
X120252259Y-125365741D01*
X125857000Y-123184984D02*
X125857000Y-118023996D01*
X120252259Y-125365741D02*
X123676243Y-125365741D01*
X111887000Y-134874000D02*
X112903000Y-135890000D01*
X105853000Y-134874000D02*
X111887000Y-134874000D01*
X112903000Y-135890000D02*
X114684000Y-135890000D01*
X115295799Y-101747201D02*
X115295799Y-92476201D01*
X108712000Y-108331000D02*
X115295799Y-101747201D01*
X115295799Y-92476201D02*
X115717201Y-92054799D01*
X129159000Y-94996000D02*
X126217799Y-92054799D01*
X129159000Y-94996000D02*
X129159000Y-97536000D01*
X126217799Y-92054799D02*
X115717201Y-92054799D01*
X107696000Y-129249510D02*
X112522000Y-124423510D01*
X107696000Y-133096000D02*
X107696000Y-129249510D01*
X122512791Y-146558520D02*
X123171520Y-145899791D01*
X100838000Y-147320000D02*
X101092000Y-147066000D01*
X123171520Y-140734480D02*
X127254000Y-136652000D01*
X107188000Y-133604000D02*
X105853000Y-133604000D01*
X112522000Y-147066000D02*
X113029480Y-146558520D01*
X107696000Y-133096000D02*
X107188000Y-133604000D01*
X113029480Y-146558520D02*
X122512791Y-146558520D01*
X123171520Y-145899791D02*
X123171520Y-140734480D01*
X101092000Y-147066000D02*
X112522000Y-147066000D01*
M02*
